<mxfile host="app.diagrams.net" modified="2022-11-17T10:49:49.935Z" agent="5.0 (X11; Linux x86_64) AppleWebKit/537.36 (KHTML, like Gecko) Chrome/108.0.0.0 Safari/537.36" etag="cK1kmKFZKs_2l47NK4zR" version="20.5.3" type="github">
  <diagram id="zg6hhcBQhS4f7MqtbQLD" name="Page-1">
    <mxGraphModel dx="1364" dy="863" grid="1" gridSize="10" guides="1" tooltips="1" connect="1" arrows="1" fold="1" page="1" pageScale="1" pageWidth="827" pageHeight="1169" math="0" shadow="0">
      <root>
        <mxCell id="0" />
        <mxCell id="1" parent="0" />
        <mxCell id="qdHL29QVpRs0t0gUK61W-3" value="" style="edgeStyle=orthogonalEdgeStyle;rounded=0;orthogonalLoop=1;jettySize=auto;html=1;fontFamily=Comic Sans MS;fontSize=18;" edge="1" parent="1" source="qdHL29QVpRs0t0gUK61W-1" target="qdHL29QVpRs0t0gUK61W-2">
          <mxGeometry relative="1" as="geometry" />
        </mxCell>
        <mxCell id="qdHL29QVpRs0t0gUK61W-1" value="&lt;font style=&quot;font-size: 18px;&quot; face=&quot;Comic Sans MS&quot;&gt;Memory controller&lt;/font&gt;" style="ellipse;whiteSpace=wrap;html=1;" vertex="1" parent="1">
          <mxGeometry x="320" y="80" width="190" height="70" as="geometry" />
        </mxCell>
        <mxCell id="qdHL29QVpRs0t0gUK61W-5" value="" style="edgeStyle=orthogonalEdgeStyle;rounded=0;orthogonalLoop=1;jettySize=auto;html=1;fontFamily=Comic Sans MS;fontSize=18;" edge="1" parent="1" source="qdHL29QVpRs0t0gUK61W-2" target="qdHL29QVpRs0t0gUK61W-4">
          <mxGeometry relative="1" as="geometry" />
        </mxCell>
        <mxCell id="qdHL29QVpRs0t0gUK61W-2" value="&lt;font style=&quot;font-size: 18px;&quot; face=&quot;Comic Sans MS&quot;&gt;Machine check registers&lt;/font&gt;" style="ellipse;whiteSpace=wrap;html=1;" vertex="1" parent="1">
          <mxGeometry x="320" y="200" width="190" height="70" as="geometry" />
        </mxCell>
        <mxCell id="qdHL29QVpRs0t0gUK61W-7" value="" style="edgeStyle=orthogonalEdgeStyle;rounded=0;orthogonalLoop=1;jettySize=auto;html=1;fontFamily=Comic Sans MS;fontSize=18;" edge="1" parent="1" source="qdHL29QVpRs0t0gUK61W-4" target="qdHL29QVpRs0t0gUK61W-6">
          <mxGeometry relative="1" as="geometry" />
        </mxCell>
        <mxCell id="qdHL29QVpRs0t0gUK61W-4" value="&lt;font style=&quot;font-size: 18px;&quot; face=&quot;Comic Sans MS&quot;&gt;BIOS&lt;/font&gt;" style="ellipse;whiteSpace=wrap;html=1;" vertex="1" parent="1">
          <mxGeometry x="320" y="320" width="190" height="70" as="geometry" />
        </mxCell>
        <mxCell id="qdHL29QVpRs0t0gUK61W-10" value="" style="edgeStyle=orthogonalEdgeStyle;rounded=0;orthogonalLoop=1;jettySize=auto;html=1;fontFamily=Comic Sans MS;fontSize=18;" edge="1" parent="1" source="qdHL29QVpRs0t0gUK61W-6" target="qdHL29QVpRs0t0gUK61W-9">
          <mxGeometry relative="1" as="geometry" />
        </mxCell>
        <mxCell id="qdHL29QVpRs0t0gUK61W-6" value="&lt;font face=&quot;Comic Sans MS&quot;&gt;&lt;span style=&quot;font-size: 18px;&quot;&gt;kernel&lt;/span&gt;&lt;/font&gt;" style="ellipse;whiteSpace=wrap;html=1;" vertex="1" parent="1">
          <mxGeometry x="320" y="460" width="190" height="70" as="geometry" />
        </mxCell>
        <mxCell id="qdHL29QVpRs0t0gUK61W-8" value="GHES" style="text;html=1;strokeColor=none;fillColor=none;align=center;verticalAlign=middle;whiteSpace=wrap;rounded=0;fontFamily=Comic Sans MS;fontSize=18;" vertex="1" parent="1">
          <mxGeometry x="430" y="410" width="60" height="30" as="geometry" />
        </mxCell>
        <mxCell id="qdHL29QVpRs0t0gUK61W-13" value="" style="rounded=0;orthogonalLoop=1;jettySize=auto;html=1;fontFamily=Comic Sans MS;fontSize=18;" edge="1" parent="1" source="qdHL29QVpRs0t0gUK61W-9" target="qdHL29QVpRs0t0gUK61W-12">
          <mxGeometry relative="1" as="geometry" />
        </mxCell>
        <mxCell id="qdHL29QVpRs0t0gUK61W-15" value="" style="edgeStyle=none;rounded=0;orthogonalLoop=1;jettySize=auto;html=1;fontFamily=Comic Sans MS;fontSize=18;" edge="1" parent="1" source="qdHL29QVpRs0t0gUK61W-9">
          <mxGeometry relative="1" as="geometry">
            <mxPoint x="539.2227606669408" y="732.5768768544151" as="targetPoint" />
          </mxGeometry>
        </mxCell>
        <mxCell id="qdHL29QVpRs0t0gUK61W-17" value="" style="edgeStyle=none;rounded=0;orthogonalLoop=1;jettySize=auto;html=1;fontFamily=Comic Sans MS;fontSize=18;" edge="1" parent="1" source="qdHL29QVpRs0t0gUK61W-9" target="qdHL29QVpRs0t0gUK61W-16">
          <mxGeometry relative="1" as="geometry" />
        </mxCell>
        <mxCell id="qdHL29QVpRs0t0gUK61W-9" value="&lt;font face=&quot;Comic Sans MS&quot;&gt;&lt;span style=&quot;font-size: 18px;&quot;&gt;rasdaemon daemon&lt;/span&gt;&lt;/font&gt;" style="ellipse;whiteSpace=wrap;html=1;" vertex="1" parent="1">
          <mxGeometry x="320" y="585" width="190" height="70" as="geometry" />
        </mxCell>
        <mxCell id="qdHL29QVpRs0t0gUK61W-11" value="tracepoint" style="text;html=1;strokeColor=none;fillColor=none;align=center;verticalAlign=middle;whiteSpace=wrap;rounded=0;fontFamily=Comic Sans MS;fontSize=18;" vertex="1" parent="1">
          <mxGeometry x="430" y="540" width="80" height="30" as="geometry" />
        </mxCell>
        <mxCell id="qdHL29QVpRs0t0gUK61W-12" value="&lt;font face=&quot;Comic Sans MS&quot;&gt;&lt;span style=&quot;font-size: 18px;&quot;&gt;database&lt;/span&gt;&lt;/font&gt;" style="ellipse;whiteSpace=wrap;html=1;" vertex="1" parent="1">
          <mxGeometry x="210" y="730" width="190" height="70" as="geometry" />
        </mxCell>
        <mxCell id="qdHL29QVpRs0t0gUK61W-21" value="" style="edgeStyle=none;rounded=0;orthogonalLoop=1;jettySize=auto;html=1;fontFamily=Comic Sans MS;fontSize=18;" edge="1" parent="1" source="qdHL29QVpRs0t0gUK61W-16" target="qdHL29QVpRs0t0gUK61W-20">
          <mxGeometry relative="1" as="geometry" />
        </mxCell>
        <mxCell id="qdHL29QVpRs0t0gUK61W-16" value="&lt;font face=&quot;Comic Sans MS&quot;&gt;&lt;span style=&quot;font-size: 18px;&quot;&gt;thresholds&lt;/span&gt;&lt;/font&gt;" style="ellipse;whiteSpace=wrap;html=1;" vertex="1" parent="1">
          <mxGeometry x="590" y="585" width="190" height="70" as="geometry" />
        </mxCell>
        <mxCell id="qdHL29QVpRs0t0gUK61W-20" value="&lt;font style=&quot;font-size: 18px;&quot; face=&quot;Comic Sans MS&quot;&gt;triggers&lt;/font&gt;" style="rhombus;whiteSpace=wrap;html=1;" vertex="1" parent="1">
          <mxGeometry x="760" y="690" width="150" height="80" as="geometry" />
        </mxCell>
        <mxCell id="qdHL29QVpRs0t0gUK61W-22" value="&lt;font style=&quot;font-size: 18px;&quot; face=&quot;Comic Sans MS&quot;&gt;global logfile&lt;/font&gt;" style="rhombus;whiteSpace=wrap;html=1;" vertex="1" parent="1">
          <mxGeometry x="510" y="710" width="150" height="80" as="geometry" />
        </mxCell>
      </root>
    </mxGraphModel>
  </diagram>
</mxfile>
